<?xml version="1.0" encoding="iso-8859-1"?>
<!-- Uploaded to: SVG Repo, www.svgrepo.com, Generator: SVG Repo Mixer Tools -->
<svg version="1.1" id="Layer_1" xmlns="http://www.w3.org/2000/svg" xmlns:xlink="http://www.w3.org/1999/xlink" 
	 viewBox="0 0 512 512" xml:space="preserve">
<rect x="21.6" y="32" style="fill:#FFFFFF;" width="469.6" height="341.6"/>
<g>
	<rect y="11.2" style="fill:#2D2D2D;" width="512" height="21.6"/>
	<rect y="373.6" style="fill:#2D2D2D;" width="512" height="21.6"/>
	<path style="fill:#2D2D2D;" d="M397.5,500.7l16.1-19.1L266.4,357.2L119.9,481.7l16.2,19.1l43.6-37h174L397.5,500.7z M190.3,454.7
		l76.2-64.7l76.6,64.7H190.3z"/>
</g>
<g>
	<rect x="56" y="64.8" style="fill:#BCBCBC;" width="181.6" height="53.6"/>
	<rect x="56" y="139.2" style="fill:#BCBCBC;" width="181.6" height="53.6"/>
</g>
<g>
	<rect x="56" y="230.2" style="fill:#D8D6D6;" width="181.6" height="10"/>
	<rect x="56" y="251" style="fill:#D8D6D6;" width="181.6" height="10"/>
	<rect x="56" y="271.8" style="fill:#D8D6D6;" width="181.6" height="10"/>
	<rect x="56" y="292.6" style="fill:#D8D6D6;" width="181.6" height="10"/>
	<rect x="56" y="313.4" style="fill:#D8D6D6;" width="181.6" height="10"/>
	<rect x="56" y="334.2" style="fill:#D8D6D6;" width="181.6" height="10"/>
	<rect x="274.4" y="230.2" style="fill:#D8D6D6;" width="181.6" height="10"/>
	<rect x="274.4" y="251" style="fill:#D8D6D6;" width="181.6" height="10"/>
	<rect x="274.4" y="271.8" style="fill:#D8D6D6;" width="181.6" height="10"/>
	<rect x="274.4" y="292.6" style="fill:#D8D6D6;" width="181.6" height="10"/>
	<rect x="274.4" y="313.4" style="fill:#D8D6D6;" width="181.6" height="10"/>
	<rect x="274.4" y="334.2" style="fill:#D8D6D6;" width="181.6" height="10"/>
</g>
<rect x="306.4" y="144.8" style="fill:#E81241;" width="21.6" height="52"/>
<g>
	<rect x="274.4" y="167.2" style="fill:#2D2D2D;" width="21.6" height="31.2"/>
	<rect x="338.4" y="116.8" style="fill:#2D2D2D;" width="21.6" height="80.8"/>
</g>
<rect x="370.4" y="64.8" style="fill:#E81241;" width="21.6" height="133.6"/>
<rect x="402.4" y="91.2" style="fill:#2D2D2D;" width="21.6" height="106.4"/>
<rect x="434.4" y="134.4" style="fill:#E81241;" width="21.6" height="64"/>
</svg>